# xmcd CD database file
#
# Track frame offsets:
#	150
#	11855
#	20965
#	60527
#	75412
#	86700
#	98245
#	111892
#
# Disc length: 1689 seconds
#
# Revision: 0
# Processed by: cddbd v1.4PL0 Copyright (c) Steve Scherf et al.
# Submitted via: CDex 1.50Beta7
#
DISCID=60069708
DTITLE=Erik Lindgren - Seasons
DYEAR=1900
DGENRE=New Age
TTITLE0=Here She Comes
TTITLE1=Seek Ye First
TTITLE2=November
TTITLE3=A Mother's Lullabye
TTITLE4=Chariots Of Fire
TTITLE5=As The Deer
TTITLE6=A Whisper Of Twilight
TTITLE7=Breathe
EXTD=
EXTT0=
EXTT1=
EXTT2=
EXTT3=
EXTT4=
EXTT5=
EXTT6=
EXTT7=
PLAYORDER=
